<?xml version="1.0" encoding="UTF-8"?>
<svg width="24px" height="24px" viewBox="0 0 24 24" version="1.1" xmlns="http://www.w3.org/2000/svg" xmlns:xlink="http://www.w3.org/1999/xlink">
    <!-- Generator: Sketch 51 (57462) - http://www.bohemiancoding.com/sketch -->
    <title>icon/category/business</title>
    <desc>Created with Sketch.</desc>
    <defs></defs>
    <g id="Symbols" stroke="none" stroke-width="1" fill="none" fill-rule="evenodd">
        <g id="Artboard" transform="translate(-24.000000, -56.000000)" fill="#616161">
            <g id="icon/category/business" transform="translate(24.000000, 56.000000)">
                <path d="M11.4411,18.1464 L10.5531,12.8189 C10.5208,12.6248 10.6053,12.4298 10.769,12.3207 C11.2006,12.0329 12,11.5 12,11.5 C12,11.5 12.7994,12.0329 13.231,12.3207 C13.3947,12.4298 13.4792,12.6248 13.4469,12.8189 L12.5591,18.1452 L15.3264,12.8009 C15.556,12.3566 16.0785,12.1503 16.5497,12.3178 C18.4175,12.9931 20,14.0506 20,15.5 L20,20.5 C20,21.05 19.55,21.4999 19,21.5 L5,21.5 C4.45,21.5 4,21.05 4,20.5 L4,15.5 C4,14.0506 5.5825,12.9931 7.4549,12.3308 C7.9197,12.1655 8.4352,12.3688 8.662,12.8069 C9.3268,14.0711 10.6773,16.6733 11.4411,18.1464 Z M12,10.5 C14.21,10.5 16,8.71 16,6.5 C16,4.29 14.21,2.5 12,2.5 C9.79,2.5 8,4.29 8,6.5 C8,8.71 9.79,10.5 12,10.5 Z" id="Fill-1"></path>
            </g>
        </g>
    </g>
</svg>