<?xml version="1.0" encoding="UTF-8"?>
<svg width="24px" height="24px" viewBox="0 0 24 24" version="1.1" xmlns="http://www.w3.org/2000/svg" xmlns:xlink="http://www.w3.org/1999/xlink">
    <!-- Generator: Sketch 51 (57462) - http://www.bohemiancoding.com/sketch -->
    <title>icon/category/electronic_devices</title>
    <desc>Created with Sketch.</desc>
    <defs></defs>
    <g id="Symbols" stroke="none" stroke-width="1" fill="none" fill-rule="evenodd">
        <g id="Artboard" transform="translate(-88.000000, -56.000000)" fill="#616161" fill-rule="nonzero">
            <g id="icon/category/electronic_devices" transform="translate(88.000000, 56.000000)">
                <path d="M16,1 L8,1 C6.34,1 5,2.34 5,4 L5,20 C5,21.66 6.34,23 8,23 L16,23 C17.66,23 19,21.66 19,20 L19,4 C19,2.34 17.66,1 16,1 Z M13.5,21 L10.5,21 C10.22,21 10,20.78 10,20.5 C10,20.22 10.22,20 10.5,20 L13.5,20 C13.78,20 14,20.22 14,20.5 C14,20.78 13.78,21 13.5,21 Z M17,18 L7,18 L7,4 L17,4 L17,18 Z" id="icon/hardware/phone_android_24px"></path>
            </g>
        </g>
    </g>
</svg>