<?xml version="1.0" encoding="UTF-8"?>
<svg width="24px" height="24px" viewBox="0 0 24 24" version="1.1" xmlns="http://www.w3.org/2000/svg" xmlns:xlink="http://www.w3.org/1999/xlink">
    <!-- Generator: Sketch 51 (57462) - http://www.bohemiancoding.com/sketch -->
    <title>icon/category/leisure_hobbies</title>
    <desc>Created with Sketch.</desc>
    <defs></defs>
    <g id="Symbols" stroke="none" stroke-width="1" fill="none" fill-rule="evenodd">
        <g id="Artboard" transform="translate(-184.000000, -56.000000)" fill="#616161">
            <g id="icon/category/leisure_hobbies" transform="translate(184.000000, 56.000000)">
                <path d="M19.78,3 L11.22,3 C10.55,3 10,3.55 10,4.22 C10,4.22 10,6.4727 10,7.5 C10,7.7761 10.2239,8 10.5,8 C11.4869,8 13.7021,8 15,8 C15.2652,8 15.5196,8.1054 15.7071,8.2929 C15.8946,8.4804 16,8.7348 16,9 C16,10.2979 16,12.5131 16,13.5 C16,13.7761 16.2239,14 16.5,14 C17.5273,14 19.78,14 19.78,14 C20.45,14 21,13.45 21,12.78 L21,4.22 C21,3.55 20.45,3 19.78,3 Z M12.44,6.67 C11.76,6.67 11.21,6.12 11.21,5.44 C11.21,4.76 11.76,4.21 12.44,4.21 C13.1148,4.21 13.67,4.7652 13.67,5.44 C13.67,6.12 13.12,6.67 12.44,6.67 Z M18.56,12.78 C17.88,12.79 17.33,12.24 17.32,11.56 C17.31,10.88 17.86,10.33 18.54,10.32 C19.22,10.31 19.77,10.86 19.78,11.56 C19.77,12.23 19.23,12.77 18.56,12.78 Z M18.56,6.67 C17.88,6.68 17.33,6.13 17.32,5.45 C17.31,4.77 17.86,4.22 18.54,4.21 C19.22,4.2 19.77,4.75 19.78,5.44 C19.78,6.12 19.24,6.66 18.56,6.67 Z M4.22,10 L12.78,10 C13.4493,10 14,10.5507 14,11.22 L14,19.78 C14,20.45 13.45,21 12.78,21 L4.22,21 C3.55,21 3,20.45 3,19.78 L3,11.22 C3,10.55 3.55,10 4.22,10 Z M8.5,14.28 C7.83,14.28 7.28,14.83 7.28,15.5 C7.28,16.17 7.83,16.72 8.5,16.72 C9.17,16.72 9.72,16.17 9.72,15.5 C9.72,14.8307 9.1693,14.28 8.5,14.28 Z M5.44,11.22 C4.77,11.22 4.22,11.77 4.22,12.44 C4.22,13.1093 4.7707,13.66 5.44,13.66 C6.11,13.66 6.66,13.11 6.66,12.44 C6.66,11.77 6.11,11.22 5.44,11.22 Z M11.55,17.33 C10.88,17.33 10.33,17.88 10.33,18.55 C10.33,19.22 10.88,19.77 11.55,19.77 C12.2193,19.77 12.77,19.2193 12.77,18.55 C12.77,17.88 12.23,17.34 11.56,17.33 L11.55,17.33 Z" id="Fill-1"></path>
            </g>
        </g>
    </g>
</svg>