<?xml version="1.0" encoding="UTF-8"?>
<svg width="24px" height="24px" viewBox="0 0 24 24" version="1.1" xmlns="http://www.w3.org/2000/svg" xmlns:xlink="http://www.w3.org/1999/xlink">
    <!-- Generator: Sketch 51 (57462) - http://www.bohemiancoding.com/sketch -->
    <title>icon/category/for_the_home</title>
    <desc>Created with Sketch.</desc>
    <defs></defs>
    <g id="Symbols" stroke="none" stroke-width="1" fill="none" fill-rule="evenodd">
        <g id="Artboard" transform="translate(-120.000000, -56.000000)" fill="#616161">
            <g id="icon/category/for_the_home" transform="translate(120.000000, 56.000000)">
                <path d="M7.3846975,2.6838 C7.5207975,2.2754 7.9028975,2 8.3332975,2 C9.8532975,2 13.3718975,2 14.8918975,2 C15.3222975,2 15.7043975,2.2754 15.8404975,2.6838 C16.4843975,4.6153 18.3248975,10.1369 19.1738975,12.6838 C19.2754975,12.9887 19.2243975,13.3239 19.0363975,13.5847 C18.8484975,13.8455 18.5465975,14 18.2251975,14 C15.1975975,14 8.0275975,14 4.9999975,14 C4.6785975,14 4.3766975,13.8455 4.1887975,13.5847 C4.0007975,13.3239 3.9496975,12.9887 4.0512975,12.6838 C4.9002975,10.1369 6.7407975,4.6153 7.3846975,2.6838 Z M10.6125975,16 C10.6125975,15.7348 10.7179975,15.4804 10.9054975,15.2929 C11.0929975,15.1054 11.3473975,15 11.6125975,15 C11.8777975,15 12.1321975,15.1054 12.3196975,15.2929 C12.5071975,15.4804 12.6125975,15.7348 12.6125975,16 C12.6125975,17.4592 12.6125975,20 12.6125975,20 C12.6125975,20 15.1533975,20 16.6125975,20 C16.8777975,20 17.1321975,20.1054 17.3196975,20.2929 C17.5071975,20.4804 17.6125975,20.7348 17.6125975,21 C17.6125975,21.2652 17.5071975,21.5196 17.3196975,21.7071 C17.1321975,21.8946 16.8777975,22.0001 16.6125975,22 C14.3525975,22 8.8725975,22 6.6125975,22 C6.3473975,22.0001 6.0929975,21.8946 5.9054975,21.7071 C5.7179975,21.5196 5.6125975,21.2652 5.6125975,21 C5.6125975,20.7348 5.7179975,20.4804 5.9054975,20.2929 C6.0929975,20.1054 6.3473975,20 6.6125975,20 C8.0717975,20 10.6125975,20 10.6125975,20 C10.6125975,20 10.6125975,17.4592 10.6125975,16 Z" id="Fill-1"></path>
            </g>
        </g>
    </g>
</svg>