<?xml version="1.0" encoding="UTF-8"?>
<svg width="24px" height="24px" viewBox="0 0 24 24" version="1.1" xmlns="http://www.w3.org/2000/svg" xmlns:xlink="http://www.w3.org/1999/xlink">
    <!-- Generator: Sketch 51 (57462) - http://www.bohemiancoding.com/sketch -->
    <title>icon/category/real_estate</title>
    <desc>Created with Sketch.</desc>
    <defs></defs>
    <g id="Symbols" stroke="none" stroke-width="1" fill="none" fill-rule="evenodd">
        <g id="Artboard" transform="translate(-248.000000, -56.000000)" fill="#616161" fill-rule="nonzero">
            <g id="icon/category/real_estate" transform="translate(248.000000, 56.000000)">
                <path d="M15,11.2912428 L15,6.1212428 C15,5.5912428 14.79,5.0812428 14.41,4.7112428 L12.7,3.0012428 C12.5131685,2.81399013 12.2595176,2.7087572 11.995,2.7087572 C11.7304824,2.7087572 11.4768315,2.81399013 11.29,3.0012428 L9.59,4.7012428 C9.21,5.0812428 9,5.5912428 9,6.1212428 L9,7.2912428 L5,7.2912428 C3.9,7.2912428 3,8.1912428 3,9.2912428 L3,19.2912428 C3,20.3912428 3.9,21.2912428 5,21.2912428 L19,21.2912428 C20.1,21.2912428 21,20.3912428 21,19.2912428 L21,13.2912428 C21,12.1912428 20.1,11.2912428 19,11.2912428 L15,11.2912428 Z M7,19.2912428 L5,19.2912428 L5,17.2912428 L7,17.2912428 L7,19.2912428 Z M7,15.2912428 L5,15.2912428 L5,13.2912428 L7,13.2912428 L7,15.2912428 Z M7,11.2912428 L5,11.2912428 L5,9.2912428 L7,9.2912428 L7,11.2912428 Z M13,19.2912428 L11,19.2912428 L11,17.2912428 L13,17.2912428 L13,19.2912428 Z M13,15.2912428 L11,15.2912428 L11,13.2912428 L13,13.2912428 L13,15.2912428 Z M13,11.2912428 L11,11.2912428 L11,9.2912428 L13,9.2912428 L13,11.2912428 Z M13,7.2912428 L11,7.2912428 L11,5.2912428 L13,5.2912428 L13,7.2912428 Z M19,19.2912428 L17,19.2912428 L17,17.2912428 L19,17.2912428 L19,19.2912428 Z M19,15.2912428 L17,15.2912428 L17,13.2912428 L19,13.2912428 L19,15.2912428 Z" id="icon/social/location_city_24px"></path>
            </g>
        </g>
    </g>
</svg>