<?xml version="1.0" encoding="UTF-8"?>
<svg width="24px" height="24px" viewBox="0 0 24 24" version="1.1" xmlns="http://www.w3.org/2000/svg" xmlns:xlink="http://www.w3.org/1999/xlink">
    <!-- Generator: Sketch 51 (57462) - http://www.bohemiancoding.com/sketch -->
    <title>icon/category/services</title>
    <desc>Created with Sketch.</desc>
    <defs></defs>
    <g id="Symbols" stroke="none" stroke-width="1" fill="none" fill-rule="evenodd">
        <g id="Artboard" transform="translate(-280.000000, -56.000000)" fill="#616161" fill-rule="nonzero">
            <g id="icon/category/services" transform="translate(280.000000, 56.000000)">
                <path d="M17.5,4 L17.5,3 C17.5,2.45 17.05,2 16.5,2 L4.5,2 C3.95,2 3.5,2.45 3.5,3 L3.5,7 C3.5,7.55 3.95,8 4.5,8 L16.5,8 C17.05,8 17.5,7.55 17.5,7 L17.5,6 L18.5,6 L18.5,10 L9.5,10 C8.95,10 8.5,10.45 8.5,11 L8.5,21 C8.5,21.55 8.95,22 9.5,22 L11.5,22 C12.05,22 12.5,21.55 12.5,21 L12.5,12 L19.5,12 C20.05,12 20.5,11.55 20.5,11 L20.5,5 C20.5,4.45 20.05,4 19.5,4 L17.5,4 Z" id="icon/editor/format_paint_24px"></path>
            </g>
        </g>
    </g>
</svg>